<svg xmlns="http://www.w3.org/2000/svg" width="32" height="32"><path d="M22.73 19.194a1.268 1.268 0 01-.43-2.461l4.63-1.694a1.144 1.144 0 01.19-.051.5.5 0 00.38-.379l1.66-8.3c0-.03.01-.061.01-.091a.485.485 0 00-.48-.483h-3.06a1.272 1.272 0 010-2.544h3.06a3.017 3.017 0 013.01 3.016 3.079 3.079 0 01-.06.6l-1.66 8.31a3.032 3.032 0 01-2.26 2.35l-4.54 1.662a1.367 1.367 0 01-.45.065zm5.96-15.7a2.71 2.71 0 012.7 2.709 3.2 3.2 0 01-.05.533l-1.66 8.311a2.711 2.711 0 01-2.05 2.114l-4.57 1.672a.962.962 0 01-.33.061.976.976 0 01-.9-.626.955.955 0 01.58-1.231l4.62-1.692a.761.761 0 01.15-.041.793.793 0 00.61-.617l1.66-8.3a.409.409 0 00.02-.154.793.793 0 00-.8-.791h-3.05a.965.965 0 110-1.929h3.07m0-.635h-3.06a1.58 1.58 0 000 3.16h3.06a.178.178 0 01.17.175v.04l-1.67 8.29a.162.162 0 01-.14.134 1.343 1.343 0 00-.23.072l-4.63 1.692a1.577 1.577 0 00.53 3.058 1.735 1.735 0 00.55-.093l4.53-1.662a3.357 3.357 0 002.48-2.575l1.66-8.311a3.63 3.63 0 00.06-.656 3.316 3.316 0 00-3.31-3.324zM8.63 19.19a1.194 1.194 0 01-.47-.092L4 17.44a2.971 2.971 0 01-2.12-2.36L.36 6.78a3.479 3.479 0 01-.05-.564 2.952 2.952 0 012.87-3.017h2.8a1.272 1.272 0 010 2.544h-2.8a.455.455 0 00-.34.482.407.407 0 00.01.114l1.52 8.309a.429.429 0 00.28.36.559.559 0 01.19.062l4.25 1.692a1.283 1.283 0 01.71 1.652 1.252 1.252 0 01-1.17.78zM5.99 3.49a.965.965 0 110 1.929H3.18a.74.74 0 00-.65.791 1.022 1.022 0 00.01.174l1.52 8.3a.732.732 0 00.53.606c.05.011.1.031.15.041l4.25 1.693a.964.964 0 01-.36 1.857.89.89 0 01-.36-.071l-4.18-1.674a2.62 2.62 0 01-1.9-2.123L.67 6.722a2.939 2.939 0 01-.05-.511 2.642 2.642 0 012.56-2.72h2.81m0-.615H3.18a3.334 3.334 0 00-3.12 3.96l1.52 8.3a3.281 3.281 0 002.33 2.6l4.13 1.652a1.629 1.629 0 00.59.113 1.577 1.577 0 001.45-2.206 1.53 1.53 0 00-.86-.842l-4.23-1.692c-.08-.031-.16-.052-.23-.073a.207.207 0 01-.06-.123l-1.54-8.3c0-.02-.01-.041-.01-.061a.262.262 0 01.06-.175h2.77a1.575 1.575 0 10.01-3.149zm3.08 28.819a2.657 2.657 0 01-2.59-2.708v-1.221a2.711 2.711 0 012.07-2.658l2.28-.5a.214.214 0 00.07-.174V22.5a.259.259 0 00-.07-.175 11.63 11.63 0 01-4.06-7.273L4.73 1.766A1.264 1.264 0 015.98.309h19.64a1.22 1.22 0 01.96.451 1.242 1.242 0 01.29 1.026l-2.22 13.287a11.417 11.417 0 01-4.43 7.294.177.177 0 00-.07.133v1.94a.185.185 0 00.14.174l2.5.5a2.72 2.72 0 012.17 2.658v1.221a2.712 2.712 0 01-2.71 2.708H9.07zm13.19-2.534a.174.174 0 00.18-.174v-1.221a.166.166 0 00-.15-.165l-2.49-.5a2.729 2.729 0 01-2.18-2.657v-1.939a2.7 2.7 0 011.08-2.166 8.9 8.9 0 003.46-5.673l1.97-11.8H7.47l1.8 11.8a9.127 9.127 0 003.16 5.694 2.711 2.711 0 011 2.134v1.94a2.691 2.691 0 01-2.06 2.656l-2.29.5a.263.263 0 00-.06.175v1.221a.261.261 0 00.06.174h13.18zM25.63.608a.972.972 0 01.74.339.994.994 0 01.21.78l-2.21 13.276a11.187 11.187 0 01-4.31 7.1.472.472 0 00-.2.39v1.94a.49.49 0 00.39.472l2.5.5a2.41 2.41 0 011.92 2.361v1.221a2.4 2.4 0 01-2.4 2.4H9.07a2.344 2.344 0 01-2.28-2.4v-1.221a2.389 2.389 0 011.82-2.35l2.29-.5a.471.471 0 00.3-.471v-1.939a.569.569 0 00-.17-.411 11.371 11.371 0 01-3.96-7.089L5.04 1.719A.977.977 0 015.26.95a.932.932 0 01.72-.339h19.65M24.49 2.54H7.11l1.86 12.178a9.357 9.357 0 003.27 5.889 2.44 2.44 0 01.88 1.9v1.939a2.379 2.379 0 01-1.81 2.348l-2.29.493a.46.46 0 00-.31.472v1.222a.44.44 0 00.36.482h13.19a.487.487 0 00.49-.482v-1.222a.5.5 0 00-.39-.472l-2.5-.5a2.415 2.415 0 01-1.93-2.36v-1.939a2.432 2.432 0 01.97-1.929 9.2 9.2 0 003.57-5.869l2.02-12.147m1.14-2.544H5.98a1.6 1.6 0 00-1.2.554 1.567 1.567 0 00-.36 1.262L6.45 15.09a11.9 11.9 0 004.13 7.428v1.827l-2.11.462a2.99 2.99 0 00-2.29 2.954v1.222a2.961 2.961 0 002.89 3.016h13.19a3.025 3.025 0 003.02-3.016v-1.222a3.015 3.015 0 00-2.42-2.954l-2.38-.472V22.57a11.662 11.662 0 004.49-7.448l2.22-13.277a1.584 1.584 0 00-1.56-1.846zM7.82 3.158h15.93l-1.9 11.44a8.606 8.606 0 01-3.33 5.48 3.015 3.015 0 00-1.21 2.42v1.94a3.033 3.033 0 002.43 2.964l2.38.472v.975H9.33v-1l2.1-.462a3 3 0 002.3-2.954V22.5a3.056 3.056 0 00-1.11-2.38 8.8 8.8 0 01-3.06-5.5L7.82 3.159z" fill="#30ac29" fill-rule="evenodd"/></svg>